<svg width="291" height="285" viewBox="0 0 291 285" fill="none" xmlns="http://www.w3.org/2000/svg">
<path opacity="0.16" d="M150.332 0.0888672C153.792 0.206105 157.222 0.441714 160.616 0.791992L160.508 1.78027L161.502 1.88965C164.218 2.18839 166.911 2.56154 169.579 3.00586L170.565 3.16992L170.729 2.1875C174.133 2.77824 177.497 3.48595 180.815 4.30469L180.571 5.26855L181.54 5.51465C184.185 6.18643 186.801 6.93034 189.385 7.74316L190.339 8.04297L190.637 7.09473C193.922 8.15297 197.156 9.32161 200.333 10.5986L199.956 11.5195L200.881 11.8994C203.402 12.933 205.888 14.0347 208.334 15.2021L209.236 15.6328L209.665 14.7334C212.767 16.2398 215.805 17.8521 218.776 19.5645L218.273 20.4238L219.137 20.9287C221.486 22.3042 223.792 23.744 226.052 25.2441L226.885 25.7969L227.435 24.9678C230.291 26.8922 233.073 28.9147 235.777 31.0293L235.161 31.8086L235.944 32.4297C238.076 34.1201 240.156 35.8693 242.185 37.6738L242.932 38.3379L243.592 37.5947C246.147 39.8999 248.617 42.294 250.998 44.7715L250.277 45.4551L250.965 46.1816C252.835 48.1545 254.648 50.1798 256.401 52.2549L257.047 53.0186L257.806 52.377C260.006 55.0178 262.11 57.7377 264.115 60.5312L263.305 61.1055L263.882 61.9219C265.45 64.1393 266.955 66.4029 268.395 68.71L268.924 69.5586L269.766 69.0322C271.562 71.9581 273.254 74.9519 274.837 78.0098L273.951 78.4609L274.404 79.3525C275.634 81.7707 276.795 84.2282 277.885 86.7227L278.285 87.6387L279.195 87.2402C280.545 90.391 281.782 93.5991 282.901 96.8604L281.959 97.1768L282.276 98.125C283.137 100.693 283.926 103.295 284.638 105.926L284.899 106.892L285.86 106.631C286.73 109.939 287.48 113.294 288.108 116.69L287.129 116.865L287.304 117.85C287.776 120.512 288.172 123.201 288.49 125.913L288.606 126.906L289.594 126.79C289.967 130.183 290.218 133.611 290.343 137.07L289.35 137.1L289.379 138.1C289.418 139.457 289.437 140.818 289.438 142.185C289.438 143.551 289.418 144.913 289.379 146.27L289.35 147.27L290.343 147.298C290.218 150.758 289.967 154.186 289.594 157.579L288.606 157.464L288.49 158.457C288.172 161.169 287.776 163.857 287.304 166.52L287.129 167.504L288.108 167.678C287.48 171.074 286.73 174.429 285.86 177.737L284.899 177.478L284.638 178.443C284.104 180.417 283.527 182.373 282.909 184.312L282.276 186.244L281.959 187.192L282.901 187.508C281.782 190.769 280.545 193.977 279.195 197.128L278.285 196.73L277.885 197.646C277.068 199.517 276.21 201.368 275.313 203.196L274.404 205.018L273.951 205.908L274.837 206.358C273.255 209.416 271.562 212.41 269.766 215.336L268.924 214.811L268.395 215.659C267.315 217.39 266.198 219.095 265.046 220.775L263.882 222.447L263.305 223.264L264.115 223.837C262.11 226.631 260.006 229.35 257.806 231.991L257.047 231.351L256.401 232.114C255.086 233.671 253.737 235.199 252.356 236.698L250.965 238.188L250.277 238.914L250.998 239.598C248.617 242.075 246.147 244.468 243.592 246.773L242.932 246.031L242.185 246.695C240.664 248.049 239.113 249.371 237.533 250.66L235.944 251.939L235.161 252.561L235.778 253.339C233.074 255.454 230.291 257.476 227.435 259.4L226.885 258.572L226.052 259.126C224.357 260.251 222.636 261.341 220.891 262.396L219.137 263.44L218.273 263.945L218.776 264.804C215.805 266.516 212.767 268.128 209.665 269.635L209.236 268.736L208.334 269.167C205.888 270.334 203.402 271.436 200.881 272.47L199.956 272.85L200.333 273.77C197.156 275.047 193.922 276.215 190.637 277.273L190.339 276.326L189.385 276.626C187.447 277.236 185.491 277.806 183.519 278.337L181.54 278.854L180.571 279.101L180.815 280.063C177.497 280.882 174.133 281.59 170.729 282.181L170.565 281.199L169.579 281.364C166.911 281.809 164.218 282.181 161.502 282.479L160.508 282.589L160.616 283.576C157.222 283.926 153.792 284.163 150.332 284.28L150.306 283.286L149.307 283.313C147.949 283.35 146.586 283.369 145.219 283.369C143.852 283.369 142.49 283.35 141.132 283.313L140.132 283.286L140.104 284.28C136.644 284.163 133.215 283.926 129.82 283.576L129.93 282.589L128.936 282.479L126.903 282.241C124.875 281.99 122.86 281.698 120.858 281.364L119.872 281.199L119.708 282.181C116.303 281.59 112.94 280.882 109.622 280.063L109.867 279.101L108.897 278.854L106.919 278.337C104.946 277.806 102.99 277.236 101.053 276.626L100.1 276.326L99.8008 277.273C96.5154 276.215 93.2816 275.047 90.1045 273.77L90.4824 272.85L89.5566 272.47C87.0352 271.436 84.5498 270.334 82.1035 269.167L81.2012 268.736L80.7715 269.635C77.6701 268.128 74.632 266.516 71.6611 264.804L72.1641 263.945L71.3018 263.44L69.5479 262.396C67.8022 261.341 66.0809 260.251 64.3857 259.126L63.5527 258.572L63.002 259.4C60.1453 257.476 57.3622 255.454 54.6582 253.34L55.2773 252.561L54.4941 251.939L52.9053 250.66C51.3259 249.371 49.775 248.049 48.2539 246.695L47.5068 246.031L46.8457 246.773C44.2904 244.468 41.8203 242.074 39.4395 239.597L40.1611 238.914L39.4727 238.188L38.0811 236.698C36.7002 235.199 35.3521 233.671 34.0371 232.114L33.3916 231.351L32.6318 231.991C30.4317 229.35 28.3263 226.631 26.3213 223.837L27.1328 223.264L26.5557 222.447L25.3916 220.775C24.2394 219.095 23.1232 217.389 22.0439 215.659L21.5146 214.811L20.6709 215.336C18.8745 212.41 17.1829 209.416 15.6006 206.358L16.4863 205.908L16.0332 205.018L15.124 203.196C14.2277 201.368 13.3709 199.517 12.5537 197.646L12.1533 196.73L11.2412 197.128C9.89178 193.977 8.65456 190.769 7.53516 187.508L8.47852 187.192L8.16113 186.244L7.5293 184.312C6.91109 182.373 6.33391 180.417 5.7998 178.443L5.53906 177.478L4.57715 177.737C3.70728 174.429 2.95715 171.074 2.3291 167.677L3.30859 167.504L3.13379 166.52C2.66129 163.857 2.26511 161.169 1.94727 158.457L1.83105 157.464L0.84375 157.579C0.470672 154.186 0.218663 150.758 0.09375 147.298L1.08789 147.27L1.05957 146.27L1.01465 144.23C1.00477 143.55 1 142.868 1 142.185C1 141.501 1.00477 140.819 1.01465 140.139L1.05957 138.1L1.08789 137.1L0.09375 137.07C0.218679 133.611 0.470703 130.183 0.84375 126.79L1.83105 126.906L1.94727 125.913C2.18566 123.879 2.46823 121.858 2.79395 119.852L3.13379 117.85L3.30859 116.865L2.3291 116.691C2.95717 113.294 3.70726 109.939 4.57715 106.631L5.53906 106.892L5.7998 105.926C6.33391 103.952 6.91108 101.996 7.5293 100.058L8.16113 98.125L8.47852 97.1768L7.53516 96.8604C8.65458 93.5991 9.89176 90.391 11.2412 87.2402L12.1533 87.6387L12.5537 86.7227C13.3709 84.8517 14.2277 83.0012 15.124 81.1729L16.0332 79.3525L16.4863 78.4609L15.6006 78.0098C17.1829 74.952 18.8745 71.9579 20.6709 69.0322L21.5146 69.5586L22.0439 68.71C23.4829 66.403 24.9877 64.1393 26.5557 61.9219L27.1328 61.1055L26.3213 60.5312C28.3264 57.7375 30.4317 55.0179 32.6318 52.377L33.3916 53.0186L34.0371 52.2549C35.3521 50.6986 36.7002 49.17 38.0811 47.6709L39.4727 46.1816L40.1611 45.4551L39.4395 44.7715C41.8201 42.2942 44.2896 39.8998 46.8447 37.5947L47.5059 38.3379L48.2539 37.6738C49.775 36.3205 51.3259 34.9985 52.9053 33.709L54.4941 32.4297L55.2773 31.8086L54.6592 31.0293C57.3631 28.9147 60.1453 26.8922 63.002 24.9678L63.5527 25.7969L64.3857 25.2441C66.6458 23.744 68.9516 22.3041 71.3008 20.9287L72.1641 20.4238L71.6602 19.5645C74.6313 17.8521 77.6698 16.2398 80.7715 14.7334L81.2012 15.6328L82.1035 15.2021C83.9384 14.3265 85.7954 13.4882 87.6729 12.6875L89.5566 11.8994L90.4824 11.5195L90.1045 10.5986C93.2816 9.3216 96.5155 8.15298 99.8008 7.09473L100.1 8.04297L101.053 7.74316C103.637 6.93034 106.252 6.18642 108.897 5.51465L109.867 5.26855L109.622 4.30469C112.94 3.48602 116.303 2.77822 119.708 2.1875L119.872 3.16992L120.858 3.00586C123.526 2.56155 126.22 2.18839 128.936 1.88965L129.93 1.78027L129.82 0.791992C133.215 0.441683 136.644 0.206136 140.104 0.0888672L140.132 1.08301L141.132 1.05566C142.49 1.01868 143.852 1 145.219 1C146.586 1 147.949 1.01867 149.307 1.05566L150.306 1.08301L150.332 0.0888672Z" stroke="#DD88CF" stroke-width="2" stroke-linecap="square" stroke-dasharray="8 12"/>
</svg>
