<svg width="30" height="30" viewBox="0 0 30 30" fill="none" xmlns="http://www.w3.org/2000/svg">
<g clip-path="url(#clip0_1905_556)">
<path fill-rule="evenodd" clip-rule="evenodd" d="M16.74 1.70143C16.74 1.27519 16.9093 0.866403 17.2107 0.565005C17.5121 0.263608 17.9209 0.0942841 18.3471 0.0942841C21.231 0.0948523 23.9966 1.24086 26.0355 3.28026C28.0745 5.31965 29.22 8.08543 29.22 10.9693C29.22 11.3955 29.0507 11.8043 28.7493 12.1057C28.4479 12.4071 28.0391 12.5764 27.6129 12.5764C27.1866 12.5764 26.7778 12.4071 26.4764 12.1057C26.175 11.8043 26.0057 11.3955 26.0057 10.9693C26.0057 8.93791 25.1989 6.9897 23.7627 5.5531C22.3265 4.1165 20.3785 3.30914 18.3471 3.30857C17.9209 3.30857 17.5121 3.13925 17.2107 2.83785C16.9093 2.53645 16.74 2.12767 16.74 1.70143ZM16.74 7.755C16.74 7.32876 16.9093 6.91997 17.2107 6.61858C17.5121 6.31718 17.9209 6.14786 18.3471 6.14786C19.6259 6.14786 20.8522 6.65583 21.7564 7.56002C22.6606 8.46421 23.1686 9.69056 23.1686 10.9693C23.1686 11.3955 22.9993 11.8043 22.6979 12.1057C22.3965 12.4071 21.9877 12.5764 21.5614 12.5764C21.1352 12.5764 20.7264 12.4071 20.425 12.1057C20.1236 11.8043 19.9543 11.3955 19.9543 10.9693C19.9543 10.543 19.785 10.1343 19.4836 9.83286C19.1822 9.53146 18.7734 9.36214 18.3471 9.36214C17.9209 9.36214 17.5121 9.19282 17.2107 8.89142C16.9093 8.59002 16.74 8.18124 16.74 7.755ZM6.63214 11.8136C6.72689 11.6529 6.86193 11.5198 7.02391 11.4273C7.1859 11.3349 7.36921 11.2863 7.55572 11.2864H14.5586C14.7447 11.2867 14.9276 11.3354 15.0892 11.4279C15.2507 11.5203 15.3854 11.6532 15.48 11.8136L16.9371 14.2821L17.2864 14.31L17.4064 14.3186C19.3029 14.4729 20.9421 15.8507 21.2421 17.7364C21.435 18.9664 21.6193 20.2971 21.6193 21.675C21.6193 23.0507 21.435 24.3814 21.24 25.6114C20.9421 27.4971 19.3029 28.8771 17.4064 29.0293L17.2671 29.04C15.2957 29.2007 13.2043 29.37 11.0571 29.37C8.91 29.37 6.81857 29.1986 4.84714 29.04H4.82572L4.70572 29.0293C2.80929 28.8771 1.17 27.4993 0.874287 25.6114C0.68143 24.3814 0.492859 23.0507 0.492859 21.675C0.492859 20.2971 0.679287 18.9664 0.874287 17.7364C1.17 15.8507 2.80929 14.4729 4.70572 14.3186L4.82786 14.31L5.17714 14.2821L6.63214 11.8136ZM14.5864 21.3857C14.5864 23.6314 13.3221 24.8936 11.0786 24.8936C8.835 24.8936 7.57286 23.6293 7.57286 21.3857C7.57286 19.1421 8.835 17.88 11.0786 17.88C13.3243 17.88 14.5864 19.1421 14.5864 21.3857Z" fill="#DD88CF"/>
</g>
<defs>
<clipPath id="clip0_1905_556">
<rect width="30" height="30" fill="white"/>
</clipPath>
</defs>
</svg>
