<svg width="24" height="24" viewBox="0 0 24 24" fill="none" xmlns="http://www.w3.org/2000/svg">
<path d="M23 11.3889C23.0042 13.0021 22.6273 14.5934 21.9 16.0333C21.0376 17.7588 19.7119 19.2101 18.0713 20.2247C16.4307 21.2393 14.5401 21.777 12.6111 21.7778C10.998 21.782 9.4066 21.4051 7.96669 20.6778L1.00003 23L3.32225 16.0333C2.59494 14.5934 2.21804 13.0021 2.22225 11.3889C2.223 9.45995 2.76078 7.56929 3.77535 5.9287C4.78992 4.28811 6.24122 2.96239 7.96669 2.10003C9.4066 1.37273 10.998 0.995829 12.6111 1.00003H13.2222C15.7698 1.14058 18.1759 2.21585 19.9801 4.01997C21.7842 5.82409 22.8595 8.23027 23 10.7778V11.3889Z" fill="#DD88CF" stroke="#DD88CF" stroke-width="2" stroke-linecap="round" stroke-linejoin="round"/>
</svg>
