<svg width="12" height="12" viewBox="0 0 12 12" fill="none" xmlns="http://www.w3.org/2000/svg">
<g clip-path="url(#clip0_1905_539)">
<path d="M2.5007 6.4993C2.77685 6.4993 3.0007 6.27544 3.0007 5.9993C3.0007 5.72316 2.77685 5.4993 2.5007 5.4993C2.22456 5.4993 2.0007 5.72316 2.0007 5.9993C2.0007 6.27544 2.22456 6.4993 2.5007 6.4993Z" fill="white" stroke="white" stroke-width="1.6" stroke-linecap="round" stroke-linejoin="round"/>
<path d="M5.9993 6.4993C6.27544 6.4993 6.4993 6.27544 6.4993 5.9993C6.4993 5.72316 6.27544 5.4993 5.9993 5.4993C5.72316 5.4993 5.4993 5.72316 5.4993 5.9993C5.4993 6.27544 5.72316 6.4993 5.9993 6.4993Z" fill="white" stroke="white" stroke-width="1.6" stroke-linecap="round" stroke-linejoin="round"/>
<path d="M9.50019 6.4993C9.77633 6.4993 10.0002 6.27544 10.0002 5.9993C10.0002 5.72316 9.77633 5.4993 9.50019 5.4993C9.22405 5.4993 9.0002 5.72316 9.0002 5.9993C9.0002 6.27544 9.22405 6.4993 9.50019 6.4993Z" fill="white" stroke="white" stroke-width="1.6" stroke-linecap="round" stroke-linejoin="round"/>
</g>
<defs>
<clipPath id="clip0_1905_539">
<rect width="12" height="12" fill="white"/>
</clipPath>
</defs>
</svg>
