<svg width="375" height="44" viewBox="0 0 375 44" fill="none" xmlns="http://www.w3.org/2000/svg">
<g clip-path="url(#clip0_1905_567)">
<rect opacity="0.35" x="336.5" y="17.8333" width="21" height="10.3333" rx="2.16667" stroke="#22172A"/>
<path opacity="0.4" d="M359 21V25C359.805 24.6612 360.328 23.8731 360.328 23C360.328 22.1269 359.805 21.3388 359 21Z" fill="#22172A"/>
<rect x="338" y="19.3333" width="18" height="7.33333" rx="1.33333" fill="#22172A"/>
<path d="M321.12 25.7312C322.396 24.6524 324.265 24.6524 325.54 25.7312C325.604 25.7893 325.641 25.8714 325.643 25.9578C325.645 26.0443 325.611 26.1277 325.549 26.1883L323.552 28.2039C323.494 28.2631 323.414 28.2966 323.33 28.2967C323.247 28.2967 323.167 28.2631 323.109 28.2039L321.111 26.1883C321.049 26.1277 321.015 26.0442 321.017 25.9578C321.019 25.8714 321.056 25.7892 321.12 25.7312ZM318.455 23.0418C321.204 20.4857 325.459 20.4858 328.207 23.0418C328.269 23.1016 328.305 23.1842 328.306 23.2703C328.307 23.3565 328.273 23.4396 328.212 23.5008L327.058 24.6678C326.939 24.7869 326.746 24.7895 326.624 24.6736C325.722 23.8564 324.548 23.404 323.33 23.4041C322.114 23.4046 320.94 23.857 320.038 24.6736C319.916 24.7894 319.724 24.7868 319.605 24.6678L318.451 23.5008C318.39 23.4397 318.356 23.3564 318.357 23.2703C318.358 23.1842 318.393 23.1016 318.455 23.0418ZM315.79 20.3601C320.006 16.321 326.656 16.3207 330.87 20.3601C330.931 20.4201 330.966 20.5022 330.966 20.5877C330.967 20.6732 330.933 20.7555 330.872 20.8162L329.716 21.9832C329.597 22.1027 329.404 22.1039 329.284 21.9861C327.678 20.4594 325.546 19.6083 323.33 19.6082C321.114 19.6082 318.982 20.4592 317.376 21.9861C317.256 22.1041 317.063 22.1029 316.944 21.9832L315.787 20.8162C315.727 20.7554 315.693 20.6733 315.694 20.5877C315.694 20.5022 315.729 20.4201 315.79 20.3601Z" fill="#22172A"/>
<path d="M295.667 24.3337C296.219 24.3337 296.667 24.7814 296.667 25.3337V27.3337C296.666 27.8858 296.219 28.3337 295.667 28.3337H294.667C294.114 28.3337 293.667 27.8858 293.667 27.3337V25.3337C293.667 24.7814 294.114 24.3337 294.667 24.3337H295.667ZM300.334 22.3337C300.886 22.3338 301.334 22.7815 301.334 23.3337V27.3337C301.333 27.8857 300.886 28.3335 300.334 28.3337H299.334C298.781 28.3337 298.334 27.8858 298.334 27.3337V23.3337C298.334 22.7814 298.781 22.3337 299.334 22.3337H300.334ZM305 19.9997C305.552 19.9997 305.999 20.4475 306 20.9997V27.3337C305.999 27.8858 305.552 28.3337 305 28.3337H304C303.448 28.3335 303 27.8857 303 27.3337V20.9997C303 20.4476 303.448 19.9998 304 19.9997H305ZM309.667 17.6667C310.219 17.6667 310.667 18.1144 310.667 18.6667V27.3337C310.666 27.8858 310.219 28.3337 309.667 28.3337H308.667C308.114 28.3337 307.667 27.8858 307.667 27.3337V18.6667C307.667 18.1144 308.114 17.6667 308.667 17.6667H309.667Z" fill="#22172A"/>
<path d="M37.7764 29.2393C36.8741 29.2393 36.1062 28.9954 35.4727 28.5078C34.8393 28.0156 34.4496 27.3639 34.3038 26.5527H36.0606C36.1746 26.9264 36.3842 27.2227 36.6895 27.4414C36.9994 27.6556 37.3663 27.7627 37.7901 27.7627C38.5102 27.7627 39.073 27.446 39.4786 26.8125C39.8842 26.1745 40.087 25.2904 40.087 24.1602H40.0255H39.9913H39.9708C39.7384 24.6296 39.3988 24.9941 38.9522 25.2539C38.5056 25.5091 37.9929 25.6367 37.4141 25.6367C36.4753 25.6367 35.6983 25.3268 35.0831 24.707C34.4724 24.0872 34.1671 23.3034 34.1671 22.3555C34.1671 21.3438 34.5089 20.5143 35.1925 19.8672C35.8806 19.2155 36.7602 18.8896 37.8311 18.8896C38.5512 18.8896 39.1892 19.056 39.7452 19.3887C40.3012 19.7214 40.7455 20.2044 41.0782 20.8379C41.543 21.6628 41.7755 22.7018 41.7755 23.9551C41.7755 25.6139 41.4223 26.9105 40.7159 27.8447C40.0095 28.7744 39.0297 29.2393 37.7764 29.2393ZM36.4434 23.6953C36.808 24.0553 37.2729 24.2354 37.838 24.2354C38.4031 24.2354 38.8702 24.0553 39.2393 23.6953C39.6085 23.3353 39.793 22.8796 39.793 22.3281C39.793 21.7721 39.6062 21.305 39.2325 20.9268C38.8588 20.5485 38.3962 20.3594 37.8448 20.3594C37.2934 20.3594 36.8308 20.5462 36.4571 20.9199C36.0834 21.2891 35.8966 21.7493 35.8966 22.3008C35.8966 22.8659 36.0789 23.3307 36.4434 23.6953ZM44.5921 27.9541C44.2731 27.9541 44.0111 27.8516 43.806 27.6465C43.6009 27.4414 43.4984 27.1839 43.4984 26.874C43.4984 26.5596 43.6009 26.3021 43.806 26.1016C44.0111 25.8965 44.2731 25.7939 44.5921 25.7939C44.9157 25.7939 45.1778 25.8965 45.3783 26.1016C45.5834 26.3021 45.6859 26.5596 45.6859 26.874C45.6859 27.1839 45.5834 27.4414 45.3783 27.6465C45.1778 27.8516 44.9157 27.9541 44.5921 27.9541ZM44.5921 22.8271C44.2731 22.8271 44.0111 22.7269 43.806 22.5264C43.6009 22.3213 43.4984 22.0638 43.4984 21.7539C43.4984 21.4395 43.6009 21.182 43.806 20.9814C44.0111 20.7764 44.2731 20.6738 44.5921 20.6738C44.9157 20.6738 45.1778 20.7764 45.3783 20.9814C45.5834 21.182 45.6859 21.4395 45.6859 21.7539C45.6859 22.0638 45.5834 22.3213 45.3783 22.5264C45.1778 22.7269 44.9157 22.8271 44.5921 22.8271ZM52.2213 29V27.1611H47.402V25.5889C48.2041 24.1123 49.5439 21.9613 51.4215 19.1357H53.9098V25.6709H55.2428V27.1611H53.9098V29H52.2213ZM49.0358 25.6094V25.7119H52.2487V20.5713H52.153C51.0866 22.1481 50.0475 23.8275 49.0358 25.6094ZM59.1669 29V20.9131H59.0507L56.5966 22.6357V20.9404L59.1738 19.1357H60.9306V29H59.1669Z" fill="#22172A"/>
</g>
<defs>
<clipPath id="clip0_1905_567">
<rect width="375" height="44" fill="white"/>
</clipPath>
</defs>
</svg>
