<svg width="279" height="62" viewBox="0 0 279 62" fill="none" xmlns="http://www.w3.org/2000/svg">
<path d="M32.9867 16.392H36.1547V21.456H32.9867V16.392ZM34.5707 5.04C36.1547 5.04 37.5707 5.296 38.8187 5.808C40.0827 6.304 41.0747 7.008 41.7947 7.92C42.5147 8.832 42.8747 9.912 42.8747 11.16C42.8747 12.392 42.5147 13.472 41.7947 14.4C41.0747 15.328 40.0827 16.048 38.8187 16.56C37.5707 17.056 36.1547 17.304 34.5707 17.304C33.0027 17.304 31.5867 17.056 30.3227 16.56C29.0747 16.048 28.0827 15.328 27.3467 14.4C26.6267 13.472 26.2667 12.392 26.2667 11.16C26.2667 9.912 26.6267 8.832 27.3467 7.92C28.0827 7.008 29.0747 6.304 30.3227 5.808C31.5867 5.296 33.0027 5.04 34.5707 5.04ZM34.5707 7.56C33.5627 7.56 32.6667 7.704 31.8827 7.992C31.1147 8.28 30.5067 8.688 30.0587 9.216C29.6267 9.744 29.4107 10.392 29.4107 11.16C29.4107 11.912 29.6267 12.56 30.0587 13.104C30.5067 13.632 31.1147 14.04 31.8827 14.328C32.6667 14.616 33.5627 14.76 34.5707 14.76C35.5947 14.76 36.4907 14.616 37.2587 14.328C38.0427 14.04 38.6507 13.632 39.0827 13.104C39.5147 12.56 39.7307 11.912 39.7307 11.16C39.7307 10.392 39.5147 9.744 39.0827 9.216C38.6507 8.688 38.0427 8.28 37.2587 7.992C36.4907 7.704 35.5947 7.56 34.5707 7.56ZM24.5387 20.952H44.6747V23.544H24.5387V20.952ZM49.0888 8.328H64.4248V10.848H49.0888V8.328ZM46.6168 12.312H66.7288V14.832H46.6168V12.312ZM49.0888 4.128H52.2568V9.672H49.0888V4.128ZM48.8728 16.176H64.3528V22.08H52.1128V24.024H48.8968V19.824H61.1608V18.576H48.8728V16.176ZM48.8968 23.472H65.0008V25.896H48.8968V23.472ZM75.8469 5.376C76.9989 5.376 78.0389 5.608 78.9669 6.072C79.8949 6.536 80.6229 7.184 81.1509 8.016C81.6789 8.832 81.9429 9.776 81.9429 10.848C81.9429 11.904 81.6789 12.848 81.1509 13.68C80.6229 14.512 79.8949 15.16 78.9669 15.624C78.0389 16.088 76.9989 16.32 75.8469 16.32C74.6789 16.32 73.6309 16.088 72.7029 15.624C71.7749 15.16 71.0389 14.512 70.4949 13.68C69.9669 12.848 69.7029 11.904 69.7029 10.848C69.7029 9.776 69.9669 8.832 70.4949 8.016C71.0389 7.184 71.7749 6.536 72.7029 6.072C73.6309 5.608 74.6789 5.376 75.8469 5.376ZM75.8469 8.112C75.2709 8.112 74.7509 8.224 74.2869 8.448C73.8389 8.656 73.4789 8.968 73.2069 9.384C72.9509 9.784 72.8229 10.272 72.8229 10.848C72.8229 11.424 72.9509 11.92 73.2069 12.336C73.4789 12.752 73.8389 13.072 74.2869 13.296C74.7509 13.504 75.2709 13.608 75.8469 13.608C76.4069 13.608 76.9109 13.504 77.3589 13.296C77.8069 13.072 78.1589 12.752 78.4149 12.336C78.6869 11.92 78.8229 11.424 78.8229 10.848C78.8229 10.272 78.6869 9.784 78.4149 9.384C78.1589 8.968 77.8069 8.656 77.3589 8.448C76.9109 8.224 76.4069 8.112 75.8469 8.112ZM84.0309 3.864H87.2229V26.16H84.0309V3.864ZM69.1509 21.672L68.7909 19.08C70.0869 19.08 71.5189 19.072 73.0869 19.056C74.6709 19.024 76.2949 18.96 77.9589 18.864C79.6389 18.752 81.2629 18.584 82.8309 18.36L83.0469 20.664C81.4469 20.984 79.8229 21.216 78.1749 21.36C76.5269 21.488 74.9349 21.576 73.3989 21.624C71.8629 21.656 70.4469 21.672 69.1509 21.672ZM96.3278 20.928H116.464V23.52H96.3278V20.928ZM104.68 15.984H107.872V21.624H104.68V15.984ZM104.584 5.136H107.368V6.744C107.368 7.688 107.232 8.6 106.96 9.48C106.704 10.36 106.312 11.192 105.784 11.976C105.272 12.76 104.64 13.472 103.888 14.112C103.136 14.736 102.272 15.272 101.296 15.72C100.336 16.168 99.2718 16.496 98.1038 16.704L96.7838 14.04C97.8078 13.88 98.7278 13.624 99.5438 13.272C100.36 12.92 101.08 12.504 101.704 12.024C102.344 11.528 102.872 10.992 103.288 10.416C103.72 9.824 104.04 9.216 104.248 8.592C104.472 7.968 104.584 7.352 104.584 6.744V5.136ZM105.184 5.136H107.992V6.744C107.992 7.368 108.096 7.992 108.304 8.616C108.528 9.24 108.848 9.84 109.264 10.416C109.696 10.992 110.224 11.528 110.848 12.024C111.472 12.504 112.192 12.92 113.008 13.272C113.84 13.624 114.76 13.88 115.768 14.04L114.448 16.704C113.28 16.48 112.216 16.152 111.256 15.72C110.296 15.272 109.44 14.736 108.688 14.112C107.936 13.488 107.296 12.792 106.768 12.024C106.256 11.24 105.864 10.408 105.592 9.528C105.32 8.632 105.184 7.704 105.184 6.744V5.136ZM133.646 3.864H136.838V26.16H133.646V3.864ZM119.486 5.64H122.654V11.064H127.262V5.64H130.43V20.976H119.486V5.64ZM122.654 13.536V18.432H127.262V13.536H122.654ZM140.484 13.872H160.596V16.176H140.484V13.872ZM142.74 17.304H158.22V22.584H145.932V24.48H142.764V20.568H155.076V19.464H142.74V17.304ZM142.764 23.784H158.844V25.944H142.764V23.784ZM142.932 4.272H158.148V9.528H146.124V11.328H142.98V7.512H155.004V6.432H142.932V4.272ZM142.98 10.68H158.556V12.84H142.98V10.68ZM173.109 5.616H175.677V8.832C175.677 10.208 175.557 11.552 175.317 12.864C175.077 14.16 174.701 15.368 174.189 16.488C173.693 17.608 173.061 18.608 172.293 19.488C171.525 20.352 170.621 21.04 169.581 21.552L167.661 18.984C168.605 18.552 169.413 17.976 170.085 17.256C170.773 16.536 171.341 15.72 171.789 14.808C172.237 13.896 172.565 12.936 172.773 11.928C172.997 10.904 173.109 9.872 173.109 8.832V5.616ZM173.733 5.616H176.301V8.832C176.301 9.84 176.397 10.832 176.589 11.808C176.797 12.784 177.109 13.712 177.525 14.592C177.957 15.456 178.493 16.232 179.133 16.92C179.773 17.608 180.541 18.176 181.437 18.624L179.493 21.168C178.501 20.656 177.637 19.984 176.901 19.152C176.181 18.304 175.589 17.336 175.125 16.248C174.661 15.144 174.309 13.968 174.069 12.72C173.845 11.456 173.733 10.16 173.733 8.832V5.616ZM182.301 3.912H185.517V26.136H182.301V3.912ZM184.821 12.456H188.733V15.096H184.821V12.456ZM195.571 6.384H198.211V8.256C198.211 9.648 197.979 10.976 197.515 12.24C197.067 13.488 196.379 14.584 195.451 15.528C194.523 16.456 193.339 17.152 191.899 17.616L190.267 15.12C191.515 14.72 192.523 14.16 193.291 13.44C194.075 12.72 194.651 11.912 195.019 11.016C195.387 10.104 195.571 9.184 195.571 8.256V6.384ZM196.243 6.384H198.835V8.256C198.835 8.912 198.939 9.568 199.147 10.224C199.355 10.864 199.667 11.48 200.083 12.072C200.515 12.648 201.059 13.168 201.715 13.632C202.371 14.096 203.147 14.472 204.043 14.76L202.435 17.232C201.043 16.784 199.891 16.112 198.979 15.216C198.067 14.32 197.379 13.272 196.915 12.072C196.467 10.856 196.243 9.584 196.243 8.256V6.384ZM191.131 5.472H203.227V8.016H191.131V5.472ZM205.459 3.912H208.651V19.944H205.459V3.912ZM193.843 23.184H209.227V25.752H193.843V23.184ZM193.843 18.504H197.035V24.456H193.843V18.504ZM222.305 5.016C223.873 5.016 225.281 5.28 226.529 5.808C227.793 6.336 228.785 7.08 229.505 8.04C230.241 9 230.609 10.128 230.609 11.424C230.609 12.72 230.241 13.856 229.505 14.832C228.785 15.792 227.793 16.536 226.529 17.064C225.281 17.592 223.873 17.856 222.305 17.856C220.753 17.856 219.345 17.592 218.081 17.064C216.833 16.536 215.841 15.792 215.105 14.832C214.369 13.856 214.001 12.72 214.001 11.424C214.001 10.128 214.369 9 215.105 8.04C215.841 7.08 216.833 6.336 218.081 5.808C219.345 5.28 220.753 5.016 222.305 5.016ZM222.305 7.608C221.313 7.608 220.425 7.76 219.641 8.064C218.857 8.368 218.241 8.808 217.793 9.384C217.361 9.944 217.145 10.624 217.145 11.424C217.145 12.224 217.361 12.912 217.793 13.488C218.241 14.048 218.857 14.48 219.641 14.784C220.425 15.088 221.313 15.24 222.305 15.24C223.329 15.24 224.225 15.088 224.993 14.784C225.777 14.48 226.385 14.048 226.817 13.488C227.265 12.912 227.489 12.224 227.489 11.424C227.489 10.624 227.265 9.944 226.817 9.384C226.385 8.808 225.777 8.368 224.993 8.064C224.225 7.76 223.329 7.608 222.305 7.608ZM212.273 20.832H232.409V23.448H212.273V20.832ZM234.351 21.096H254.487V23.688H234.351V21.096ZM242.799 16.872H245.967V22.128H242.799V16.872ZM236.631 5.328H252.207V12.744H239.823V16.464H236.655V10.248H249.039V7.872H236.631V5.328ZM236.655 15.216H252.711V17.76H236.655V15.216ZM89.5616 34.888H92.7536V57.112H89.5616V34.888ZM83.0096 37.192H86.1536C86.1536 38.888 85.9856 40.512 85.6496 42.064C85.3296 43.6 84.7856 45.048 84.0176 46.408C83.2656 47.768 82.2256 49.032 80.8976 50.2C79.5856 51.352 77.9456 52.408 75.9776 53.368L74.2976 50.848C76.4416 49.808 78.1456 48.664 79.4096 47.416C80.6896 46.152 81.6096 44.728 82.1696 43.144C82.7296 41.544 83.0096 39.752 83.0096 37.768V37.192ZM75.4976 37.192H84.4976V39.736H75.4976V37.192ZM96.3278 46.816H116.44V49.336H96.3278V46.816ZM98.7758 35.32H113.992V41.344H101.968V43.744H98.8238V39.088H110.848V37.744H98.7758V35.32ZM98.8238 42.808H114.424V45.232H98.8238V42.808ZM104.8 43.984H107.968V48.184H104.8V43.984ZM98.5358 50.584H114.136V57.064H110.944V53.128H98.5358V50.584ZM118.382 38.248H129.014V40.768H118.382V38.248ZM123.734 41.776C124.678 41.776 125.51 42 126.23 42.448C126.966 42.896 127.542 43.52 127.958 44.32C128.39 45.104 128.606 46.016 128.606 47.056C128.606 48.096 128.39 49.016 127.958 49.816C127.542 50.6 126.966 51.216 126.23 51.664C125.51 52.112 124.678 52.336 123.734 52.336C122.79 52.336 121.95 52.112 121.214 51.664C120.478 51.216 119.902 50.6 119.486 49.816C119.07 49.016 118.862 48.096 118.862 47.056C118.862 46.016 119.07 45.104 119.486 44.32C119.902 43.52 120.478 42.896 121.214 42.448C121.966 42 122.806 41.776 123.734 41.776ZM123.734 44.416C123.35 44.416 122.998 44.52 122.678 44.728C122.358 44.936 122.11 45.24 121.934 45.64C121.758 46.024 121.67 46.496 121.67 47.056C121.67 47.616 121.758 48.096 121.934 48.496C122.11 48.896 122.358 49.2 122.678 49.408C122.998 49.6 123.35 49.696 123.734 49.696C124.134 49.696 124.486 49.6 124.79 49.408C125.094 49.2 125.334 48.896 125.51 48.496C125.686 48.096 125.774 47.616 125.774 47.056C125.774 46.496 125.686 46.024 125.51 45.64C125.334 45.24 125.094 44.936 124.79 44.728C124.486 44.52 124.134 44.416 123.734 44.416ZM134.462 34.888H137.486V57.112H134.462V34.888ZM131.798 43.936H135.446V46.504H131.798V43.936ZM129.782 35.296H132.758V56.176H129.782V35.296ZM122.174 35.488H125.318V39.832H122.174V35.488ZM140.484 51.952H160.62V54.544H140.484V51.952ZM148.932 47.2H152.1V52.576H148.932V47.2ZM142.596 36.304H145.788V39.736H155.244V36.304H158.412V47.872H142.596V36.304ZM145.788 42.232V45.328H155.244V42.232H145.788ZM171.298 42.376H174.994V44.968H171.298V42.376ZM166.57 36.832H168.994V40.552C168.994 41.816 168.906 43.056 168.73 44.272C168.554 45.488 168.266 46.632 167.866 47.704C167.482 48.776 166.97 49.744 166.33 50.608C165.706 51.456 164.946 52.152 164.05 52.696L162.13 50.296C162.962 49.8 163.658 49.192 164.218 48.472C164.778 47.752 165.234 46.96 165.586 46.096C165.938 45.232 166.186 44.336 166.33 43.408C166.49 42.464 166.57 41.512 166.57 40.552V36.832ZM167.266 36.832H169.642V40.408C169.642 41.32 169.706 42.224 169.834 43.12C169.978 44.016 170.202 44.872 170.506 45.688C170.81 46.504 171.21 47.256 171.706 47.944C172.218 48.632 172.858 49.224 173.626 49.72L171.874 52.216C171.01 51.672 170.274 50.984 169.666 50.152C169.074 49.304 168.602 48.352 168.25 47.296C167.898 46.24 167.642 45.128 167.482 43.96C167.338 42.792 167.266 41.608 167.266 40.408V36.832ZM178.594 34.888H181.642V57.112H178.594V34.888ZM174.082 35.248H177.058V56.128H174.082V35.248ZM189.056 46.192H192.248V52.408H189.056V46.192ZM197.12 46.192H200.312V52.408H197.12V46.192ZM184.64 51.952H204.776V54.544H184.64V51.952ZM194.672 35.992C196.272 35.992 197.696 36.24 198.944 36.736C200.208 37.232 201.192 37.928 201.896 38.824C202.616 39.704 202.976 40.752 202.976 41.968C202.976 43.168 202.616 44.216 201.896 45.112C201.192 45.992 200.208 46.68 198.944 47.176C197.696 47.672 196.272 47.92 194.672 47.92C193.088 47.92 191.664 47.672 190.4 47.176C189.152 46.68 188.168 45.992 187.448 45.112C186.728 44.216 186.368 43.168 186.368 41.968C186.368 40.752 186.728 39.704 187.448 38.824C188.168 37.928 189.152 37.232 190.4 36.736C191.664 36.24 193.088 35.992 194.672 35.992ZM194.672 38.464C193.648 38.464 192.744 38.608 191.96 38.896C191.192 39.168 190.592 39.56 190.16 40.072C189.728 40.584 189.512 41.216 189.512 41.968C189.512 42.688 189.728 43.312 190.16 43.84C190.592 44.352 191.192 44.752 191.96 45.04C192.744 45.312 193.648 45.448 194.672 45.448C195.712 45.448 196.616 45.312 197.384 45.04C198.168 44.752 198.768 44.352 199.184 43.84C199.616 43.312 199.832 42.688 199.832 41.968C199.832 41.216 199.616 40.584 199.184 40.072C198.768 39.56 198.168 39.168 197.384 38.896C196.616 38.608 195.712 38.464 194.672 38.464Z" fill="#22172A"/>
</svg>
