<svg width="30" height="26" viewBox="0 0 30 26" fill="none" xmlns="http://www.w3.org/2000/svg">
<path fill-rule="evenodd" clip-rule="evenodd" d="M14.25 2.20016e-07C15.7247 -0.000368738 17.1589 0.463317 18.3334 1.32017C19.5079 2.17702 20.3581 3.37989 20.754 4.74489L20.832 5.04036L23.637 4.36726C23.842 4.31822 24.0555 4.31136 24.2635 4.34711C24.4715 4.38287 24.6692 4.46044 24.8438 4.57474C25.0185 4.68905 25.166 4.8375 25.2767 5.01039C25.3875 5.18328 25.459 5.3767 25.4865 5.57798L25.5 5.76536V8.37418C26.3461 9.15292 27.0392 10.0718 27.546 11.0868L27.753 11.5307H28.5C28.8674 11.5308 29.222 11.6604 29.4966 11.895C29.7711 12.1296 29.9465 12.4528 29.9895 12.8034L30 12.9721V17.2961C30 17.5333 29.9391 17.7669 29.8227 17.9761C29.7062 18.1853 29.5379 18.3636 29.3325 18.4953L29.1705 18.5846L27.4185 19.4278C26.7025 20.762 25.6633 21.9113 24.3885 22.7789L24 23.0297V24.5028C24 24.8558 23.8651 25.1965 23.6209 25.4604C23.3768 25.7242 23.0404 25.8927 22.6755 25.934L22.5 25.9441H18C17.6326 25.9441 17.278 25.8145 17.0034 25.5799C16.7289 25.3453 16.5535 25.022 16.5105 24.6714L16.5 24.5028H15C15 24.8558 14.8651 25.1965 14.6209 25.4604C14.3768 25.7242 14.0404 25.8927 13.6755 25.934L13.5 25.9441H9C8.6326 25.9441 8.27799 25.8145 8.00344 25.5799C7.72889 25.3453 7.55349 25.022 7.5105 24.6714L7.5 24.5028V23.0297C6.41594 22.3645 5.47957 21.4998 4.74484 20.4853C4.01011 19.4708 3.49153 18.3267 3.219 17.1188C2.33427 16.8662 1.55177 16.3583 0.977562 15.664C0.403357 14.9697 0.065224 14.1225 0.00900006 13.2373L0 12.9721V12.2514C0.000424061 11.884 0.146819 11.5307 0.409273 11.2635C0.671726 10.9964 1.03043 10.8357 1.41209 10.8141C1.79375 10.7926 2.16957 10.9119 2.46275 11.1477C2.75593 11.3835 2.94434 11.718 2.9895 12.0827L3 12.2514V12.9721C3.002 13.1873 3.047 13.3867 3.135 13.5702C3.36359 12.2725 3.87419 11.0356 4.63352 9.94014C5.39285 8.84469 6.38387 7.91528 7.542 7.21246C7.43557 6.30512 7.52972 5.3864 7.81828 4.51643C8.10684 3.64646 8.58331 2.84483 9.21652 2.164C9.84973 1.48318 10.6254 0.938486 11.4928 0.565576C12.3602 0.192665 13.2997 -6.3305e-05 14.25 2.20016e-07ZM21 11.5307C20.6022 11.5307 20.2206 11.6826 19.9393 11.9529C19.658 12.2232 19.5 12.5898 19.5 12.9721C19.5 13.3543 19.658 13.7209 19.9393 13.9912C20.2206 14.2615 20.6022 14.4134 21 14.4134C21.3978 14.4134 21.7794 14.2615 22.0607 13.9912C22.342 13.7209 22.5 13.3543 22.5 12.9721C22.5 12.5898 22.342 12.2232 22.0607 11.9529C21.7794 11.6826 21.3978 11.5307 21 11.5307ZM14.25 2.88268C13.3414 2.88268 12.4638 3.19963 11.7801 3.77464C11.0964 4.34965 10.6533 5.1436 10.533 6.00894C11.2599 5.84649 12.0037 5.76476 12.75 5.76536H17.8155L17.9205 5.74086C17.7426 4.9322 17.2808 4.20689 16.6126 3.68652C15.9443 3.16614 15.1102 2.88233 14.25 2.88268Z" fill="#DD88CF"/>
</svg>
