<svg width="13" height="13" viewBox="0 0 13 13" fill="none" xmlns="http://www.w3.org/2000/svg">
<path d="M3.5425 6.89L5.86625 5.2L3.5425 3.51L2.9575 4.29L4.20875 5.2L2.9575 6.11L3.5425 6.89ZM9.45749 6.89L10.0425 6.11L8.79124 5.2L10.0425 4.29L9.45749 3.51L7.13375 5.2L9.45749 6.89ZM5.525 9.78249L6.5 8.8075L7.475 9.78249L8.45 8.8075L9.08375 9.44124L9.76624 8.75875L8.45 7.4425L7.475 8.41749L6.5 7.4425L5.525 8.41749L4.55 7.4425L3.23375 8.75875L3.91625 9.44124L4.55 8.8075L5.525 9.78249ZM3.965 12.4884C3.17417 12.147 2.48625 11.6837 1.90125 11.0987C1.31625 10.5137 0.853234 9.82583 0.512201 9.03499C0.171167 8.24416 0.000434156 7.39916 8.22784e-07 6.5C-0.00043251 5.60083 0.170301 4.75583 0.512201 3.965C0.8541 3.17417 1.31712 2.48625 1.90125 1.90125C2.48538 1.31625 3.1733 0.853234 3.965 0.512201C4.7567 0.171167 5.6017 0.000434156 6.5 8.22784e-07C7.3983 -0.00043251 8.24329 0.170301 9.03499 0.512201C9.82669 0.8541 10.5146 1.31712 11.0987 1.90125C11.6829 2.48538 12.1461 3.1733 12.4884 3.965C12.8308 4.7567 13.0013 5.6017 13 6.5C12.9987 7.3983 12.828 8.24329 12.4878 9.03499C12.1476 9.82669 11.6846 10.5146 11.0987 11.0987C10.5129 11.6829 9.82496 12.1461 9.03499 12.4884C8.24503 12.8308 7.40003 13.0013 6.5 13C5.59996 12.9987 4.75496 12.8286 3.965 12.4884ZM10.1887 10.1887C11.1962 9.18124 11.7 7.95166 11.7 6.5C11.7 5.04833 11.1962 3.81875 10.1887 2.81125C9.18124 1.80375 7.95166 1.3 6.5 1.3C5.04833 1.3 3.81875 1.80375 2.81125 2.81125C1.80375 3.81875 1.3 5.04833 1.3 6.5C1.3 7.95166 1.80375 9.18124 2.81125 10.1887C3.81875 11.1962 5.04833 11.7 6.5 11.7C7.95166 11.7 9.18124 11.1962 10.1887 10.1887Z" fill="#C9B9C9"/>
</svg>
